PathFileType	4	(X/Y/Z)	./resultDataOpenSim/trcMotMarkerGrf/sub09/qtm-01-01.trc
DataRate	CameraRate	NumFrames	NumMarkers	Units	OrigDataRate	OrigDataStartFrame	OrigNumFrames
250.000000	250.000000	13	24	m	250.000000	306	488
Frame#	Time	L.Toe.Tip			R.Toe.Tip			L.Ankle.Lat			R.Ankle.Lat			L.Ankle.Med			R.Ankle.Med			L.Heel			R.Heel			L.Knee.Lat			R.Knee.Lat			L.Knee.Med			R.Knee.Med			L.Thigh.Upper			R.Thigh.Upper			L.ASIS			R.ASIS			V.Sacral			L.Acromium			R.Acromium			C7			L.Elbow			R.Elbow			L.Wrist.Lat			R.Wrist.Lat
		X1	Y1	Z1	X2	Y2	Z2	X3	Y3	Z3	X4	Y4	Z4	X5	Y5	Z5	X6	Y6	Z6	X7	Y7	Z7	X8	Y8	Z8	X9	Y9	Z9	X10	Y10	Z10	X11	Y11	Z11	X12	Y12	Z12	X13	Y13	Z13	X14	Y14	Z14	X15	Y15	Z15	X16	Y16	Z16	X17	Y17	Z17	X18	Y18	Z18	X19	Y19	Z19	X20	Y20	Z20	X21	Y21	Z21	X22	Y22	Z22	X23	Y23	Z23	X24	Y24	Z24

306	1.22	0.16591091	0.04677313	0.016125495	1.0129557	0.041357264	0.11950027	0.086871102	0.17704599	-0.032939755	0.86741112	0.054958545	0.17086205	0.12199558	0.17538989	0.059547919	0.86427879	0.090706366	0.077824616	0.017152783	0.20069825	0.016496415	0.79612413	0.031270729	0.12926712	0.40761264	0.45269531	-0.078839909	0.82966324	0.51354718	0.21085086	0.4196047	0.43978036	0.045395077	0.80609035	0.48903249	0.089982187	0.53773747	0.84048183	-0.093892854	0.61959212	0.84831616	0.27178088	0.6517269	0.91518073	-0.053302516	0.68229159	0.9339369	0.18530778	0.50187343	0.97943807	0.088340769	0.63793145	1.3769981	-0.086259605	0.6171681	1.3908535	0.2453458	0.56021729	1.4321857	0.077595178	0.51944808	1.0208361	-0.14350683	0.48678106	1.0570905	0.33104782	0.71325505	0.83463603	-0.15096668	0.59144459	0.8126689	0.37581294
307	1.224	0.16768316	0.048139784	0.015660843	1.0132742	0.041112115	0.11920172	0.092766024	0.18106429	-0.034010302	0.8669462	0.055314217	0.17095145	0.12791252	0.17864693	0.058339098	0.86413434	0.090470001	0.077732019	0.023832153	0.20654621	0.015425702	0.79629119	0.031306795	0.12945142	0.41814786	0.4510395	-0.079694342	0.83906067	0.51399248	0.20994531	0.42952582	0.43774264	0.044720829	0.81322622	0.49057782	0.089292931	0.54600655	0.83938126	-0.093033752	0.6260978	0.84891753	0.27260614	0.65924106	0.91446551	-0.052516148	0.68875912	0.93430787	0.18611593	0.50854758	0.97908539	0.088630857	0.64416421	1.376765	-0.085946237	0.62386488	1.3905235	0.24579464	0.56663675	1.4318409	0.078056477	0.52559689	1.020694	-0.14259162	0.49418532	1.0564599	0.33150201	0.71798465	0.83322231	-0.15104236	0.59917133	0.81213257	0.37616238
308	1.228	0.16966393	0.049650509	0.015175767	1.0136655	0.040812484	0.11909447	0.098980337	0.18519866	-0.035032906	0.86689569	0.055537326	0.17109652	0.13412851	0.18198038	0.057203102	0.86426498	0.090499195	0.077788597	0.030881132	0.21248937	0.014387338	0.79645512	0.031455252	0.12973756	0.42867322	0.44940505	-0.080466198	0.84755595	0.51429037	0.20921687	0.43946337	0.43566775	0.044225857	0.8204759	0.49227379	0.088577912	0.55425919	0.83832277	-0.09217676	0.63227267	0.84954438	0.2735146	0.66651448	0.91384564	-0.051540598	0.69517607	0.93476605	0.18701586	0.51514872	0.978837	0.088836182	0.65042792	1.3766262	-0.085636544	0.63054712	1.3902831	0.24623668	0.57307421	1.4315816	0.078506008	0.53176604	1.0206838	-0.14168956	0.50167472	1.0559196	0.3319713	0.72265037	0.83186028	-0.15112262	0.60694731	0.81167199	0.37648514
309	1.232	0.17186781	0.051295254	0.014661458	1.0140113	0.040541041	0.11915212	0.10551451	0.1894099	-0.036019619	0.86714378	0.055621089	0.17116932	0.14063556	0.18536113	0.056119966	0.86464813	0.090737257	0.077862434	0.038285646	0.21849188	0.013386834	0.79659926	0.031627375	0.12994319	0.43931011	0.44776591	-0.081093122	0.85512232	0.51450679	0.20867764	0.45003735	0.43351224	0.043707254	0.82766894	0.49395448	0.087963241	0.56236227	0.83726781	-0.091424096	0.6381618	0.85017807	0.27446555	0.67351079	0.91333627	-0.050369576	0.70156002	0.93528943	0.18797413	0.52174616	0.97867939	0.088903764	0.65672343	1.3765833	-0.085323562	0.63722568	1.3901407	0.24667372	0.57952134	1.4314203	0.078938144	0.53794925	1.0208112	-0.14080439	0.50921371	1.0554704	0.33243521	0.72724278	0.83055949	-0.15120647	0.6147426	0.81129375	0.37677319
310	1.236	0.1743099	0.053058681	0.014094562	1.014252	0.040329286	0.11924204	0.11235998	0.19366617	-0.036962959	0.8674345	0.055608093	0.17113747	0.14744197	0.18875296	0.05507746	0.86517839	0.091058164	0.077871401	0.046046388	0.22452532	0.012424374	0.79669846	0.031769992	0.13001894	0.45012287	0.44606854	-0.081481714	0.86188336	0.51465719	0.20833789	0.46115178	0.4312575	0.043229092	0.83465224	0.4954318	0.087510064	0.57029513	0.83623162	-0.090797188	0.64382525	0.85081135	0.27541181	0.68030368	0.91294683	-0.049109932	0.70792242	0.93585881	0.18895594	0.52837178	0.97857957	0.088840891	0.66304913	1.3766389	-0.085001517	0.64390227	1.3901015	0.24709701	0.58595625	1.4313646	0.079351318	0.54413297	1.0210762	-0.1399387	0.5167723	1.0551094	0.33288543	0.73175556	0.82933448	-0.15129171	0.62252666	0.81100718	0.37702718
311	1.24	0.17701902	0.054921808	0.013449974	1.0143893	0.040163874	0.11921316	0.11951153	0.19792705	-0.037843323	0.86757537	0.055565257	0.17103077	0.15456791	0.19211314	0.05407414	0.86569965	0.091339008	0.077800323	0.054179747	0.23055729	0.011494934	0.79673582	0.031861724	0.12998766	0.46110805	0.44429955	-0.081623137	0.86803136	0.51471543	0.20825296	0.47250665	0.42892298	0.042902206	0.84132874	0.49655501	0.087202549	0.57808042	0.83525331	-0.090299269	0.64934538	0.8514332	0.27630408	0.68701084	0.91266624	-0.047902429	0.71426961	0.93646037	0.18993089	0.53500227	0.97850878	0.088700696	0.66940392	1.3767872	-0.084668985	0.6505701	1.3901587	0.24749379	0.59235186	1.4314046	0.079741511	0.55030647	1.0214656	-0.13909939	0.5243322	1.0548345	0.33332506	0.73619072	0.82819462	-0.15137558	0.63029306	0.8108166	0.37725451
312	1.244	0.18004788	0.056876936	0.012720907	1.0144646	0.040024052	0.11904675	0.12698367	0.20215083	-0.038650206	0.86754028	0.055552022	0.17090048	0.16203036	0.19541578	0.053121489	0.86610006	0.09151597	0.077684524	0.062704932	0.23655193	0.010594152	0.79672586	0.031904079	0.12988763	0.47230305	0.44252502	-0.081657783	0.873723	0.51463481	0.20844369	0.48403022	0.42656413	0.042715956	0.84766415	0.49726179	0.086984611	0.58572982	0.834365	-0.089936231	0.65482272	0.8520311	0.27710153	0.6937106	0.91248112	-0.046845162	0.72060402	0.93709006	0.19087387	0.54157919	0.97846559	0.088557219	0.67578519	1.3770158	-0.084326517	0.65722096	1.3903015	0.24785705	0.5986922	1.43153	0.080101434	0.55646638	1.0219618	-0.13830139	0.53187639	1.0546463	0.33375767	0.74055712	0.82714197	-0.1514564	0.63807216	0.81072698	0.37745826
313	1.248	0.18347323	0.058936559	0.011917361	1.014537	0.039897928	0.11886443	0.1348148	0.2063213	-0.039398793	0.86744316	0.055586154	0.17078584	0.16982741	0.1986707	0.052243597	0.86639263	0.091588689	0.077568189	0.071627929	0.24247605	0.0097207144	0.79671159	0.03192497	0.12975916	0.48374024	0.44081504	-0.081735124	0.87902426	0.51438388	0.20883604	0.49571075	0.42426317	0.042621421	0.85366149	0.49758589	0.086809082	0.59323638	0.83358481	-0.089677998	0.66035232	0.85260682	0.27778081	0.70040778	0.91239366	-0.045964744	0.72691874	0.93775475	0.19176628	0.54805135	0.97847538	0.088477134	0.68218394	1.377317	-0.083976805	0.6638414	1.3905248	0.24818379	0.6049786	1.4317446	0.080427031	0.56261253	1.022558	-0.13756528	0.53938183	1.0545479	0.3341785	0.7448636	0.82617803	-0.15153386	0.6459129	0.81074881	0.37763185
314	1.252	0.1873921	0.061127814	0.011046416	1.0146496	0.03978128	0.11878219	0.14305432	0.21044725	-0.040114783	0.8674308	0.055630988	0.17069786	0.17793608	0.20191354	0.051472034	0.86668352	0.091593233	0.077473604	0.08093019	0.24829552	0.0088751674	0.79673417	0.031962374	0.12963875	0.49535983	0.43916202	-0.08185532	0.88396439	0.51397341	0.20933121	0.50742603	0.42210359	0.042623334	0.8593309	0.49761539	0.086669024	0.60057617	0.83292133	-0.089455974	0.66599536	0.85318016	0.27833882	0.70705332	0.91241881	-0.045224244	0.73319493	0.93846814	0.19259594	0.55440131	0.97857807	0.088494849	0.68858512	1.3776917	-0.083627429	0.67041476	1.3908323	0.24847422	0.61122055	1.4320593	0.080721484	0.56873999	1.0232589	-0.13690511	0.54682569	1.0545402	0.33457461	0.74911521	0.82530871	-0.15161158	0.65383957	0.81089103	0.37776754
315	1.256	0.19192348	0.063483796	0.010099084	1.0148029	0.039675426	0.11880207	0.15172789	0.21453435	-0.040801843	0.86757977	0.055628096	0.17062726	0.18632844	0.20517958	0.050834531	0.86706096	0.091573441	0.077402454	0.090566988	0.25396658	0.008069525	0.79680467	0.032040168	0.12955217	0.50709739	0.43751989	-0.08191811	0.88857838	0.51344511	0.20986973	0.51904094	0.42014176	0.042760749	0.86469867	0.49744037	0.086580838	0.60772039	0.83238296	-0.089221943	0.67177188	0.85377809	0.27879318	0.71357572	0.91257317	-0.044546553	0.73941095	0.93924062	0.19335471	0.56064336	0.97881494	0.08860446	0.69497346	1.3781436	-0.083285984	0.67693309	1.3912322	0.24873684	0.61742563	1.4324753	0.080995068	0.57483762	1.0240674	-0.1363188	0.55418654	1.0546181	0.33493105	0.75331444	0.82454023	-0.1516966	0.6618305	0.81115302	0.37786563
316	1.26	0.19719969	0.06604199	0.0090494123	1.0149622	0.039585186	0.11885694	0.16080915	0.21857647	-0.041435135	0.86786076	0.055550695	0.17056519	0.19499327	0.20848372	0.050340571	0.86752263	0.091562856	0.077354461	0.10047775	0.25943607	0.0073420692	0.79690233	0.032161974	0.12951301	0.51896095	0.43588404	-0.0818616	0.89289747	0.51284084	0.21042511	0.53052683	0.41840575	0.043054226	0.86982874	0.49712701	0.086547732	0.61465179	0.83198033	-0.088984409	0.6776723	0.85442384	0.27917573	0.71993114	0.9128658	-0.04387691	0.74555507	0.9400686	0.19403606	0.56679822	0.97921037	0.088772026	0.70133473	1.3786743	-0.082954908	0.68339686	1.391731	0.24898444	0.62359873	1.4329829	0.081261022	0.58089588	1.0249749	-0.13579513	0.56142607	1.0547767	0.33522663	0.7574647	0.82387217	-0.15179175	0.66984511	0.81152604	0.37792996
317	1.264	0.20333008	0.0688347	0.0078633801	1.0150868	0.039512989	0.11890821	0.17023731	0.22256887	-0.041987043	0.86817682	0.055420617	0.17051481	0.20394436	0.21181063	0.049976189	0.8679967	0.091577621	0.077337521	0.11060167	0.26464945	0.0067497269	0.79699074	0.03231465	0.12952058	0.5309551	0.43430327	-0.08169931	0.89693822	0.51218714	0.21097988	0.54200008	0.41691625	0.043462474	0.87480427	0.49671466	0.086549845	0.62136891	0.83170973	-0.088777317	0.68366957	0.85513312	0.27951546	0.72614523	0.91329074	-0.043242971	0.75162837	0.94093399	0.194635	0.57285412	0.97975717	0.088965401	0.70765327	1.3792811	-0.082634601	0.68980754	1.392327	0.24922341	0.62974385	1.4335792	0.081528214	0.58691241	1.0259656	-0.13532893	0.56848119	1.0550155	0.33542572	0.761573	0.82329984	-0.15189168	0.67786475	0.81200027	0.37795943
318	1.268	0.21035469	0.071855827	0.0065202887	1.0151514	0.039454775	0.11896276	0.17996949	0.22650997	-0.042451182	0.86843227	0.055275697	0.1704841	0.21320859	0.21511624	0.049714394	0.86840557	0.09161694	0.077361385	0.12089022	0.26955784	0.0063392862	0.79703371	0.032470359	0.12955784	0.54303426	0.43284266	-0.081466638	0.90070778	0.51150473	0.21151103	0.55365424	0.41570668	0.04388646	0.87966743	0.49622129	0.086568557	0.62789283	0.83155237	-0.088619227	0.68972562	0.85591136	0.27982487	0.73226643	0.91383098	-0.042712321	0.75763601	0.94181309	0.19514892	0.57876208	0.98042483	0.089178546	0.7139162	1.3799585	-0.082327002	0.69616868	1.3930093	0.24945213	0.63585933	1.4342674	0.081797913	0.59288577	1.027026	-0.13492513	0.57530784	1.0553288	0.33550636	0.76564873	0.82282282	-0.15198955	0.68590847	0.81257424	0.37795243
